<?xml version="1.0" encoding="utf-8"?>
<!-- Generator: Adobe Illustrator 22.1.0, SVG Export Plug-In . SVG Version: 6.00 Build 0)  -->
<svg version="1.1" id="Capa_1" xmlns="http://www.w3.org/2000/svg" xmlns:xlink="http://www.w3.org/1999/xlink" x="0px" y="0px"
	 viewBox="0 0 400 400" style="enable-background:new 0 0 400 400;" xml:space="preserve">
<g>
	<path d="M166.3,99H65v14.7h40.8c-2,2.3-3.2,5.2-3.2,8.5c0,7.2,5.8,13,13,13c7.2,0,13-5.8,13-13c0-3.2-1.2-6.2-3.2-8.5h40.8V99z"/>
	<path d="M335,99H233.7v14.7h40.8c-2,2.3-3.2,5.2-3.2,8.5c0,7.2,5.8,13,13,13c7.2,0,13-5.8,13-13c0-3.2-1.2-6.2-3.2-8.5H335V99z"/>
	<polygon points="233.7,259.1 166.4,259.1 184.6,139.7 211.8,139.7 	"/>
	<rect x="156" y="291.4" width="84.3" height="3.4"/>
	<rect x="184" y="319.7" width="28.3" height="12.4"/>
</g>
</svg>
